<?xml version="1.0" standalone="no"?>
<!DOCTYPE svg PUBLIC "-//W3C//DTD SVG 20010904//EN"
 "http://www.w3.org/TR/2001/REC-SVG-20010904/DTD/svg10.dtd">
<svg version="1.0" xmlns="http://www.w3.org/2000/svg"
 width="500.000000pt" height="500.000000pt" viewBox="0 0 500.000000 500.000000"
 preserveAspectRatio="xMidYMid meet">

<g transform="translate(0.000000,500.000000) scale(0.100000,-0.100000)"
fill="#000000" stroke="none">
<path d="M0 2500 l0 -2500 2500 0 2500 0 0 2500 0 2500 -2500 0 -2500 0 0
-2500z m2530 1213 c-48 -17 -82 -38 -93 -57 -9 -16 -13 -186 -17 -666 l-5
-645 -32 -67 c-64 -135 -185 -225 -314 -234 l-64 -4 48 13 c88 26 153 110 187
242 19 74 20 111 20 704 0 609 1 627 20 659 11 18 28 36 38 40 12 5 6 9 -23
13 -22 3 25 6 105 7 80 0 138 -2 130 -5z m830 -26 c112 -38 166 -72 256 -161
65 -65 89 -98 122 -166 146 -303 47 -645 -239 -830 -33 -21 -65 -40 -71 -42
-14 -5 13 -57 65 -127 28 -38 34 -52 21 -46 -38 17 -104 17 -153 0 -52 -17
-112 -58 -199 -136 -118 -107 -280 -120 -411 -33 -48 31 -55 49 -10 27 73 -36
190 9 319 124 82 73 130 98 206 108 53 7 164 -14 192 -38 19 -15 15 -6 -23 61
-21 36 -35 50 -45 46 -118 -46 -292 -50 -415 -11 -199 65 -352 214 -422 413
-25 71 -28 92 -27 204 0 108 4 135 27 198 36 103 81 174 158 251 95 95 202
153 334 181 74 17 233 5 315 -23z"/>
<path d="M2330 3540 c-15 -28 -4 -39 17 -17 13 12 14 20 6 28 -8 8 -14 5 -23
-11z"/>
<path d="M2325 3350 c-11 -17 5 -32 21 -19 7 6 11 15 8 20 -7 12 -21 11 -29
-1z"/>
<path d="M2330 3140 c0 -5 5 -10 10 -10 6 0 10 5 10 10 0 6 -4 10 -10 10 -5 0
-10 -4 -10 -10z"/>
<path d="M2270 2506 c0 -9 5 -16 10 -16 6 0 10 4 10 9 0 6 -4 13 -10 16 -5 3
-10 -1 -10 -9z"/>
<path d="M2310 2301 c0 -6 4 -13 10 -16 6 -3 7 1 4 9 -7 18 -14 21 -14 7z"/>
<path d="M3076 3699 c-161 -38 -316 -212 -373 -419 -24 -90 -25 -309 0 -400
91 -339 376 -518 626 -393 42 21 55 33 54 48 -1 11 -7 53 -13 93 -17 122 15
261 84 366 36 53 119 137 166 167 l24 16 -22 87 c-31 128 -84 228 -162 307
-114 116 -246 160 -384 128z"/>
<path d="M3490 3600 c0 -5 5 -10 10 -10 6 0 10 5 10 10 0 6 -4 10 -10 10 -5 0
-10 -4 -10 -10z"/>
<path d="M3590 3531 c0 -5 5 -13 10 -16 6 -3 10 -2 10 4 0 5 -4 13 -10 16 -5
3 -10 2 -10 -4z"/>
<path d="M3575 3111 c-85 -66 -151 -168 -180 -278 -19 -69 -21 -203 -5 -262
11 -41 12 -42 33 -28 69 45 162 200 196 329 32 119 40 278 13 278 -4 0 -29
-18 -57 -39z"/>
<path d="M2636 3131 c-12 -5 -15 -10 -9 -14 6 -4 16 0 23 8 14 17 13 17 -14 6z"/>
<path d="M3715 3010 c3 -5 8 -10 11 -10 2 0 4 5 4 10 0 6 -5 10 -11 10 -5 0
-7 -4 -4 -10z"/>
<path d="M2600 2971 c0 -5 5 -13 10 -16 6 -3 10 -2 10 4 0 5 -4 13 -10 16 -5
3 -10 2 -10 -4z"/>
<path d="M3070 2176 c0 -9 5 -16 10 -16 6 0 10 4 10 9 0 6 -4 13 -10 16 -5 3
-10 -1 -10 -9z"/>
</g>
</svg>
